<svg width="800" height="798" viewBox="0 0 800 798" fill="none" xmlns="http://www.w3.org/2000/svg">
<path d="M31.7067 257.972C71.9709 151.123 156.342 66.7558 263.187 26.5012C272.156 23.1195 282.175 27.6548 285.555 36.6271C288.935 45.5993 284.402 55.6152 275.429 58.995C177.931 95.727 100.942 172.716 64.2004 270.218C61.5788 277.172 54.9697 281.461 47.9516 281.461C45.9164 281.461 43.8484 281.1 41.8325 280.342C32.8583 276.96 28.325 266.944 31.7067 257.972ZM275.427 736.59C177.931 699.858 100.942 622.871 64.2004 525.369C60.8206 516.396 50.8106 511.867 41.8306 515.245C32.8583 518.626 28.325 528.64 31.7067 537.615C71.9709 644.465 156.342 728.831 263.187 769.083C265.203 769.844 267.271 770.204 269.304 770.204C276.324 770.204 282.933 765.914 285.555 758.958C288.935 749.985 284.402 739.969 275.427 736.59ZM530.582 58.9931C628.08 95.727 705.071 172.714 741.813 270.216C744.434 277.172 751.043 281.459 758.061 281.459C760.095 281.459 762.165 281.098 764.18 280.34C773.153 276.958 777.686 266.944 774.304 257.97C734.042 151.123 649.669 66.7558 542.826 26.5012C533.852 23.1215 523.836 27.6529 520.458 36.6271C517.076 45.5993 521.608 55.6133 530.582 58.9931ZM764.182 515.245C755.208 511.867 745.194 516.398 741.813 525.369C705.071 622.871 628.08 699.858 530.582 736.59C521.61 739.969 517.076 749.983 520.456 758.958C523.076 765.914 529.685 770.202 536.705 770.202C538.738 770.202 540.806 769.842 542.822 769.083C649.667 728.831 734.04 644.464 774.304 537.615C777.688 528.64 773.155 518.626 764.182 515.245ZM787.54 414.636L597.367 510.19L629.691 607.786C631.755 614.017 630.129 620.88 625.488 625.52C620.846 630.163 613.983 631.787 607.754 629.727L510.018 597.363L478.305 660.79L414.575 787.634C414.402 787.989 414.216 788.336 414.022 788.677C410.941 794.052 405.204 797.401 398.959 797.401C392.707 797.401 386.962 794.042 383.885 788.652C383.694 788.32 383.517 787.983 383.349 787.64L319.629 660.822L287.899 597.363L190.165 629.727C183.936 631.787 177.072 630.163 172.431 625.522C167.789 620.88 166.161 614.017 168.225 607.788L200.545 510.19C200.545 510.19 8.74265 413.768 7.96715 413.224C7.96329 413.222 7.96136 413.22 7.95751 413.217L7.95172 413.213C6.24061 412.015 4.95197 410.394 3.6151 408.839C-3.74442 400.282 2.16056 391.246 3.64211 389.109C4.78992 387.451 6.22903 385.989 7.90735 384.807C8.70021 384.245 137.132 319.663 137.132 319.663L200.588 287.937L168.227 190.205C166.165 183.974 167.791 177.112 172.433 172.471C177.074 167.831 183.938 166.207 190.167 168.265L287.766 200.589L383.279 10.4974C384.67 7.75232 386.846 5.47791 387.63 4.80465C390.624 2.22352 394.511 0.64744 398.762 0.599213C398.774 0.599213 399.141 0.599213 399.158 0.599213C403.41 0.645511 407.293 2.22159 410.289 4.80079C411.072 5.47791 413.005 7.33177 414.643 10.4994L510.151 200.587L607.748 168.265C613.977 166.205 620.841 167.829 625.482 172.471C630.123 177.112 631.752 183.976 629.687 190.205L597.323 287.937L660.75 319.649L787.536 383.352C788.122 383.636 815.28 398.395 787.54 414.636ZM525.908 231.949L539.517 259.035L565.94 272.247L585.86 212.092L525.908 231.949ZM212.054 212.092L231.974 272.249L258.401 259.035L272.011 231.95L212.054 212.092ZM272.206 565.98L258.993 539.557L231.907 525.947L212.052 585.9L272.206 565.98ZM585.864 585.9L566.008 525.947L538.921 539.557L525.709 565.98L585.864 585.9ZM706.772 416.357H525.971C516.382 416.357 508.609 408.585 508.609 398.995C508.609 389.406 516.382 381.633 525.971 381.633H706.77L645.192 350.692L529.606 292.9L501.045 321.463C494.265 328.245 483.273 328.243 476.492 321.465C469.711 314.684 469.711 303.692 476.492 296.909L505.243 268.158L416.323 91.1879V271.985C416.323 281.575 408.551 289.347 398.961 289.347C389.372 289.347 381.599 281.575 381.599 271.985V91.1859L292.677 268.16L321.427 296.909C328.208 303.692 328.206 314.684 321.427 321.465C314.648 328.245 303.656 328.245 296.873 321.463L268.313 292.902L152.696 350.708L91.1461 381.633H271.945C281.535 381.633 289.307 389.406 289.307 398.995C289.307 408.585 281.535 416.357 271.945 416.357H91.1423L268.118 505.281L296.867 476.53C303.648 469.751 314.64 469.751 321.421 476.53C328.202 483.31 328.202 494.302 321.421 501.085L292.861 529.647L350.67 645.262L381.597 706.816V526.011C381.597 516.421 389.37 508.649 398.959 508.649C408.549 508.649 416.321 516.421 416.321 526.011V706.81L447.262 645.229L505.054 529.645L476.492 501.083C469.711 494.302 469.711 483.31 476.492 476.528C483.273 469.749 494.265 469.749 501.045 476.528L529.799 505.279L706.772 416.357ZM465.777 398.997C465.777 435.843 435.803 465.817 398.959 465.817C362.113 465.817 332.139 435.843 332.139 398.997C332.139 362.153 362.115 332.179 398.959 332.179C435.803 332.181 465.777 362.155 465.777 398.997ZM431.054 398.997C431.054 381.3 416.657 366.903 398.959 366.903C381.262 366.903 366.863 381.3 366.863 398.997C366.863 416.695 381.262 431.093 398.959 431.093C416.657 431.093 431.054 416.695 431.054 398.997Z" fill="white"/>
</svg>
